<?xml version="1.0" encoding="UTF-8" standalone="no"?>
<!-- Created with Inkscape (http://www.inkscape.org/) -->

<svg
   version="1.1"
   id="svg1"
   width="1200"
   height="324"
   viewBox="0 0 1200 324"
   sodipodi:docname="Full wordmark and logo with lanes-white.svg"
   inkscape:version="1.4 (86a8ad7, 2024-10-11)"
   inkscape:export-filename="Full wordmark and logo with lanes2.png"
   inkscape:export-xdpi="100"
   inkscape:export-ydpi="100"
   xmlns:inkscape="http://www.inkscape.org/namespaces/inkscape"
   xmlns:sodipodi="http://sodipodi.sourceforge.net/DTD/sodipodi-0.dtd"
   xmlns="http://www.w3.org/2000/svg"
   xmlns:svg="http://www.w3.org/2000/svg">
  <defs
     id="defs1" />
  <sodipodi:namedview
     id="namedview1"
     pagecolor="#505050"
     bordercolor="#eeeeee"
     borderopacity="1"
     inkscape:showpageshadow="0"
     inkscape:pageopacity="0"
     inkscape:pagecheckerboard="0"
     inkscape:deskcolor="#505050"
     inkscape:zoom="0.90509668"
     inkscape:cx="239.20097"
     inkscape:cy="-123.19126"
     inkscape:window-width="2560"
     inkscape:window-height="1351"
     inkscape:window-x="2551"
     inkscape:window-y="-9"
     inkscape:window-maximized="1"
     inkscape:current-layer="g1"
     showguides="true">
    <inkscape:page
       x="0"
       y="0"
       inkscape:label="1"
       id="page1"
       width="1200"
       height="324"
       margin="0"
       bleed="0" />
    <sodipodi:guide
       position="1125.9013,887.94528"
       orientation="0,-1"
       id="guide1"
       inkscape:locked="false" />
  </sodipodi:namedview>
  <g
     id="g1"
     inkscape:groupmode="layer"
     inkscape:label="Word"
     style="display:inline"
     transform="translate(-12.206046,0.67631365)">
    <path
       id="path7"
       d="m 4086.72,860.699 41.91,633.791 97.07,-98.44 h -226.64 l 12.07,182.54 h 365.12 l -47.5,-717.891 z"
       style="fill:#0437f2;fill-opacity:1;fill-rule:nonzero;stroke:none"
       transform="matrix(0.13333333,0,0,-0.13333333,0,324)" />
    <path
       id="path8"
       d="m 3411.8,1014.53 4.22,265.63 290.46,298.43 h 263.6 l -325.7,-334.33 -143.44,-137.42 z m -226.57,-153.831 47.47,717.891 h 237.92 l -47.46,-717.891 z m 471.76,0 -192.85,278.951 167.89,166.13 304.92,-445.081 z"
       style="fill:#0437f2;fill-opacity:1;fill-rule:nonzero;stroke:none"
       transform="matrix(0.13333333,0,0,-0.13333333,0,324)" />
    <path
       id="path9"
       d="m 8549.18,860.699 38.52,582.501 h -229.73 l 8.94,135.39 h 625.59 l -8.95,-135.39 h -229.72 l -38.52,-582.501 z"
       style="fill:#ffffff;fill-opacity:1;fill-rule:nonzero;stroke:none"
       transform="matrix(0.13333333,0,0,-0.13333333,0,324)" />
    <path
       id="path10"
       d="M 8111.56,1578.59 H 8277.7 L 8230.23,860.699 H 8064.1 Z m -15.7,-423.55 h -350.74 l 9.29,140.51 h 350.75 z M 7737.97,860.699 h -166.13 l 47.46,717.891 h 166.13 z"
       style="fill:#ffffff;fill-opacity:1;fill-rule:nonzero;stroke:none"
       transform="matrix(0.13333333,0,0,-0.13333333,0,324)" />
    <path
       id="path11"
       d="m 7164.34,848.398 c -56.76,0 -108.48,8.872 -155.16,26.68 -45.94,18.442 -85.59,44.41 -118.95,77.934 -32.65,33.468 -57.38,72.808 -74.21,117.928 -16.18,45.11 -22.47,94.68 -18.91,148.71 3.59,54.02 16.44,103.59 38.55,148.71 22.82,45.12 53.09,84.41 90.86,117.93 37.78,33.51 81.18,59.14 130.24,76.91 49.06,18.48 102.3,27.7 159.76,27.7 63.56,0 119.96,-10.59 169.14,-31.8 49.89,-21.17 90.94,-51.95 123.13,-92.3 l -113.17,-98.44 c -24.17,27.34 -51.21,47.5 -81.13,60.51 -29.84,13.67 -62.89,20.51 -99.14,20.51 -34.88,0 -67.03,-5.47 -96.44,-16.41 -29.46,-10.94 -55.47,-26.68 -78.01,-47.19 -21.88,-20.51 -39.53,-44.76 -53.01,-72.81 -12.81,-28.05 -20.31,-59.14 -22.58,-93.32 -2.22,-33.52 1.21,-64.26 10.31,-92.31 9.77,-28.04 24.18,-52.65 43.33,-73.82 19.8,-20.51 43.39,-36.25 70.7,-47.19 28.01,-10.939 59.1,-16.408 93.28,-16.408 32.81,0 64.92,5.117 96.37,15.388 32.18,10.94 63.82,29.07 94.88,54.34 l 86.41,-120.002 c -40.9,-29.378 -87.86,-51.949 -140.86,-67.66 -52.31,-15.738 -104.11,-23.59 -155.39,-23.59 z m 145.89,112.813 17.86,269.729 h 151.75 l -19.25,-291.292 z"
       style="fill:#ffffff;fill-opacity:1;fill-rule:nonzero;stroke:none"
       transform="matrix(0.13333333,0,0,-0.13333333,0,324)" />
    <path
       id="path12"
       d="m 6498.16,860.699 47.46,717.891 h 166.14 L 6664.3,860.699 Z"
       style="fill:#ffffff;fill-opacity:1;fill-rule:nonzero;stroke:none"
       transform="matrix(0.13333333,0,0,-0.13333333,0,324)" />
    <path
       id="path13"
       d="m 6001.84,1289.38 h 345.62 l -8.55,-129.22 h -345.63 z m -7.23,-295.36 h 390.74 l -8.83,-133.321 h -555.86 l 47.5,717.891 h 542.5 l -8.82,-133.32 h -377.39 z"
       style="fill:#ffffff;fill-opacity:1;fill-rule:nonzero;stroke:none"
       transform="matrix(0.13333333,0,0,-0.13333333,0,324)" />
    <path
       id="path14"
       d="m 5110.39,860.699 47.5,717.891 h 310.74 c 64.26,0 118.95,-10.58 164.03,-31.79 45.15,-20.51 79.06,-50.24 101.79,-89.22 22.7,-38.99 32.31,-85.47 28.71,-139.49 -3.51,-53.32 -19.21,-99.46 -47.11,-138.44 -27.81,-38.28 -65.66,-67.7 -113.51,-88.2 -47.85,-20.51 -103.91,-30.79 -168.16,-30.79 h -218.44 l 78.63,72.86 -18.01,-272.821 z m 456.41,0 -162.27,260.511 h 177.42 l 164.3,-260.511 z m -273.44,254.341 -68.67,77.93 h 209.22 c 51.25,0 90.27,10.94 117.03,32.81 26.79,22.58 41.44,53.36 44.02,92.31 2.62,39.64 -7.97,70.43 -31.84,92.3 -23.82,21.88 -61.4,32.81 -112.69,32.81 h -209.22 l 79.06,78.99 z"
       style="fill:#ffffff;fill-opacity:1;fill-rule:nonzero;stroke:none"
       transform="matrix(0.13333333,0,0,-0.13333333,0,324)" />
    <path
       id="path15"
       d="m 4665.62,1255.55 h 344.61 l -8.82,-133.32 H 4656.8 Z M 4651.84,860.699 H 4485.7 l 47.46,717.891 h 542.54 l -8.82,-133.32 h -376.41 z"
       style="fill:#ffffff;fill-opacity:1;fill-rule:nonzero;stroke:none"
       transform="matrix(0.13333333,0,0,-0.13333333,0,324)" />
    <path
       id="path16"
       d="m 2876.99,1812.54 h 69.46 L 2868.98,626.762 h -69.45 z"
       style="fill:#ffffff;fill-opacity:1;fill-rule:nonzero;stroke:none"
       transform="matrix(0.13333333,0,0,-0.13333333,0,324)" />
    <g
       id="g2"
       inkscape:groupmode="layer"
       inkscape:label="Logo"
       transform="matrix(0.49999986,0,0,0.49999986,409.15624,-298.15288)"
       style="display:inline">
      <path
         id="path1-8"
         d="m -496.05504,944.04489 c -22.5524,7.54662 -44.66906,15.51769 -66.46912,25.41932 l 0.0141,-0.15159 c -11.20747,5.07594 -22.33172,10.7167 -33.38756,17.08159 -12.42165,7.15034 -24.75511,15.23419 -37.0308,24.56539 -12.03664,9.15 -23.61004,29.4101 -26.65603,44.2256 l -8.51049,41.3579 c -4.66559,22.6653 4.24959,54.9839 22.18293,69.5872 6.62928,5.4007 13.48774,10.5185 20.5436,15.3546 8.10647,5.5526 16.67475,1.8645 18.79566,-7.7311 9.35308,-42.3029 32.53864,-147.2489 32.39551,-147.6536 63.13332,91.2129 183.56675,122.3914 283.02579,73.2605 -68.83755,13.2839 -138.89207,-16.22 -177.50154,-74.7371 -15.69115,-24.1656 -25.10767,-51.86026 -27.40205,-80.58153 z"
         style="fill:#ffffff;fill-opacity:1;fill-rule:nonzero;stroke:none;stroke-width:0.0705089" />
      <path
         id="path2-2"
         d="m -163.62832,788.5359 h 0.007 c 11.09746,29.55327 16.8898,60.83615 17.12108,92.40598 0.003,148.31222 -120.22402,268.55242 -268.53614,268.55242 -46.80337,-0.1517 -92.45534,-12.4824 -132.62094,-35.4395 -8.87713,-5.0731 -17.53638,-1.6414 -19.74543,8.3455 l -14.22244,64.26 c -2.20905,9.9867 3.40701,21.8192 12.82071,25.8184 38.35635,16.2995 79.70019,24.8821 121.67297,25.0364 173.54104,-0.01 314.22897,-140.6877 314.22616,-314.22885 -0.10436,-46.65743 -10.60107,-92.70352 -30.72373,-134.79688 z m 25.35868,98.53959 c 0.12055,4.27709 0.1537,8.55772 0.0903,12.83762 l -0.0162,0.1516 c -1.42923,-0.16781 -2.85634,-0.16781 -4.28557,-0.16781 0.13467,-4.22281 0.16217,-8.4449 0.13467,-12.66981 1.35802,0 2.71885,-0.1516 4.07686,-0.1516 z m -4.9004,26.30632 4.51471,0.38004 c -0.29473,5.31851 -0.71637,10.62858 -1.26987,15.92241 -1.58363,-0.22846 -3.1701,-0.4851 -4.75374,-0.71355 0.62753,-5.18103 1.13166,-10.37263 1.5089,-15.58397 z m -4.00987,32.41453 c 1.66332,0.36383 3.33509,0.74388 4.99911,1.10771 v 0.007 c -1.05481,6.6737 -2.31905,13.30863 -3.78493,19.8808 l -5.23533,-1.62241 c 1.54204,-6.39309 2.87537,-12.8595 4.02115,-19.37103 z m -9.84944,40.30103 c 1.81773,0.74315 3.64109,1.48706 5.46164,2.24994 -2.51436,8.43646 -5.37914,16.72979 -8.58732,24.85169 -1.88401,-1.016 -3.76803,-2.0243 -5.65203,-3.0545 3.25824,-7.8384 6.18578,-15.86734 8.77771,-24.04713 z m -21.03998,49.79433 c 1.91714,1.3657 3.82866,2.7096 5.74297,4.0762 -2.85633,5.5062 -5.88329,10.8958 -9.08934,16.1565 -2.92755,4.8011 -5.98484,9.4856 -9.15775,14.0574 -1.89811,-1.7951 -3.7927,-3.5966 -5.6901,-5.3926 3.15318,-4.3679 6.19141,-8.841 9.10557,-13.4354 3.19196,-5.0237 6.22456,-10.1823 9.08865,-15.4621 z m -43.07907,58.6603 c 1.81209,2.2972 3.62982,4.5802 5.44472,6.8775 -11.3224,12.2263 -23.56843,23.3477 -36.51324,33.2712 -1.63017,-2.9086 -3.25542,-5.8199 -4.88347,-8.7284 12.71423,-9.3312 24.76921,-19.8195 35.95199,-31.4203 z m -327.33172,57.1287 c 26.05036,13.1324 53.84372,21.8445 82.2759,26.1025 -0.53164,5.1006 -1.06609,10.2022 -1.59774,15.3028 -28.62749,-3.6552 -56.78467,-11.7384 -83.5366,-24.1277 -0.28697,-5.8522 0.98007,-11.5896 2.85844,-17.2776 z m 242.9793,2.8839 c 1.27201,3.5889 2.55035,7.1779 3.82303,10.7667 -22.75054,11.1434 -46.66306,19.2356 -71.06844,24.1957 -0.62262,-4.3791 -1.24521,-8.7585 -1.86499,-13.1405 23.64812,-4.2495 46.89998,-11.5375 69.1104,-21.8219 z"
         style="fill:#0437f2;fill-opacity:1;fill-rule:nonzero;stroke:none;stroke-width:0.0705089" />
      <path
         id="path3-4"
         d="m -541.55539,743.02144 c -20.89121,6.02362 -40.85735,15.01919 -59.27789,26.74981 l -27.78208,135.01688 c 30.82878,-30.01862 62.25196,-51.87933 93.532,-68.68312 l 14.8401,-72.11763 c 3.06856,-14.90072 -6.7012,-25.17674 -21.31213,-20.96594 z"
         style="fill:#ffffff;fill-opacity:1;fill-rule:nonzero;stroke:none;stroke-width:0.0705089" />
      <path
         id="path4-5"
         d="m -448.0093,600.39168 c -176.44462,0.003 -319.47915,143.03519 -319.47915,319.47909 0.10714,47.43938 10.77746,94.25893 31.23343,137.06103 -11.28148,-30.0525 -17.1731,-61.86142 -17.41003,-93.95657 0,-150.79685 122.2406,-273.03953 273.03674,-273.03953 61.23522,0 120.67528,20.68742 168.7732,58.589 22.73643,-11.67282 44.94969,-26.04402 66.75258,-45.13937 9.25717,-8.11138 9.07243,-22.1667 -0.42447,-29.99676 -56.83966,-46.8753 -128.35162,-72.81496 -202.4823,-72.99689 z m 30.87251,40.16563 c 44.81431,5.55543 88.65417,21.19933 128.01248,47.25816 -3.97109,4.70087 -8.72272,8.8877 -15.68832,11.59526 -34.90986,-22.6899 -73.84159,-36.94336 -113.93812,-42.79846 0.53657,-5.35165 1.07386,-10.7033 1.61396,-16.05496 z m -99.69382,4.0987 c 0.66914,4.5937 1.33616,9.17962 2.00528,13.774 -24.78824,4.55279 -49.15274,12.28132 -72.41024,23.15526 -1.34954,-3.75955 -2.70191,-7.51699 -4.05145,-11.27656 23.82438,-11.77998 48.87211,-20.35391 74.45641,-25.6527 z m -126.2173,57.97417 c 1.71901,3.04672 3.43733,6.08989 5.15635,9.13589 -13.30089,9.83536 -25.91218,20.88838 -37.59627,33.10131 -1.91152,-2.40227 -3.82514,-4.80099 -5.73664,-7.20253 11.82934,-12.86795 24.63383,-24.57107 38.17656,-35.03467 z m -64.41676,67.91526 c 1.99416,1.87838 3.98823,3.75393 5.98505,5.63231 -3.2913,4.59157 -6.45596,9.3037 -9.49696,14.13498 -3.32937,5.27974 -6.48905,10.70263 -9.47441,16.25241 -2.01367,-1.41018 -4.02679,-2.82814 -6.04038,-4.25523 2.97457,-5.78672 6.13155,-11.45777 9.47496,-16.98781 3.05171,-5.04637 6.23867,-9.97074 9.55174,-14.77666 z m -31.68814,59.88569 c 1.97786,1.06328 3.96122,2.12092 5.93822,3.18137 -3.38445,8.2355 -6.42543,16.67122 -9.11336,25.2649 -1.91141,-0.77419 -3.82294,-1.56177 -5.73435,-2.33596 2.60522,-8.86021 5.57439,-17.57445 8.90949,-26.11031 z m -14.70747,48.73955 5.5002,1.67743 c -1.59197,6.71249 -2.96906,13.49901 -4.14516,20.33206 -1.74642,-0.37723 -3.49512,-0.75727 -5.24161,-1.13732 v -0.008 c 1.08023,-7.0072 2.37473,-13.96719 3.88657,-20.86651 z m -6.19164,38.95076 c 1.66362,0.24255 3.32966,0.48511 4.99074,0.72766 -0.6387,5.43415 -1.14854,10.89015 -1.52586,16.36027 l -4.73456,-0.37721 c 0.2892,-5.58082 0.71056,-11.15247 1.26968,-16.7079 z m -1.71617,31.10165 c 1.50132,0.15161 2.9966,0.15161 4.49797,0.15161 -0.12141,4.42586 -0.13468,8.85738 -0.0912,13.28888 -1.42338,0 -2.84484,0.15161 -4.26852,0.15161 -0.13829,-4.50343 -0.17907,-9.01745 -0.13829,-13.52651 z"
         style="fill:#0437f2;fill-opacity:1;fill-rule:evenodd;stroke:none;stroke-width:0.0705089" />
      <path
         id="path5-5"
         d="m -251.18678,820.0148 c -1.10419,1.30511 -2.22808,2.57781 -3.37388,3.84204 -22.9952,25.37771 -52.91511,43.732 -91.75023,63.4612 -13.97777,7.10592 -28.54781,13.3467 -43.49579,19.19967 l -6.21608,30.47907 c -2.4763,12.13253 4.74314,18.08423 16.33558,13.74368 13.12108,-4.9138 26.24287,-9.40313 39.34491,-13.76554 l -25.92628,134.42178 c 22.96277,12.452 49.05897,13.105 75.74815,12.0663 l 36.97861,-181.68774 c 4.1946,-20.61621 9.19652,-50.95425 14.22878,-76.53572 3.6411,-18.51435 0.36099,-19.58608 -11.87377,-5.22474 z"
         style="fill:#0437f2;fill-opacity:1;fill-rule:nonzero;stroke:none;stroke-width:0.0705089" />
      <path
         id="path6-1"
         d="m -226.31039,719.86125 c -149.96414,133.72231 -319.01303,56.97999 -468.80935,312.94005 118.37032,-105.037 247.46511,-116.11472 339.86545,-163.06124 76.08658,-38.65601 110.47681,-69.03001 128.9439,-149.87881 z"
         style="fill:#ffffff;fill-opacity:1;fill-rule:nonzero;stroke:none;stroke-width:0.0705089" />
    </g>
    <path
       style="fill:#ffffff;stroke-width:0.138107"
       d="m 242.51553,50.861427 c -4.10617,-2.612116 -10.42086,-6.049272 -15.05364,-8.193866 -11.95675,-5.534985 -24.12383,-9.294795 -37.08168,-11.458796 -1.44321,-0.241021 -2.64576,-0.458998 -2.67232,-0.484393 -0.0266,-0.02539 0.12456,-1.790479 0.33583,-3.922408 0.36708,-3.704058 0.39683,-3.87618 0.66978,-3.874963 0.77622,0.0035 7.04711,1.012501 10.36744,1.668208 16.67237,3.292504 32.97278,9.572341 47.57779,18.329646 3.10503,1.861801 5.52427,3.435976 5.52427,3.594573 0,0.270847 -3.05131,3.051973 -4.1501,3.782617 -1.24509,0.827925 -3.09349,1.770326 -3.44187,1.754826 -0.11608,-0.0052 -1.05006,-0.543114 -2.0755,-1.195444 z"
       id="path1"
       transform="translate(12.206046,-0.67631365)" />
    <path
       style="fill:#ffffff;stroke-width:0.138107"
       d="m 102.42013,40.558663 c -0.51782,-1.456592 -0.91923,-2.710244 -0.89203,-2.785895 0.11046,-0.30727 7.87896,-3.813658 11.99242,-5.412897 5.97511,-2.323016 12.05278,-4.273172 18.37147,-5.894889 2.87147,-0.736977 6.46845,-1.537022 6.54669,-1.456124 0.0515,0.05322 0.88105,5.58103 0.94965,6.3279 0.0298,0.324005 -0.0375,0.345795 -2.86976,0.929543 -10.61402,2.187625 -21.20077,5.584161 -30.72877,9.858678 -0.87352,0.391888 -1.77722,0.795662 -2.0082,0.897277 l -0.41998,0.184754 z"
       id="path2"
       transform="translate(12.206046,-0.67631365)" />
    <path
       style="fill:#ffffff;stroke-width:0.138107"
       d="M 57.823144,73.104161 56.467528,71.3896 57.290707,70.463185 c 1.27901,-1.439411 7.616465,-7.645937 9.691088,-9.490874 3.518779,-3.129208 8.259222,-7.005657 8.434574,-6.897284 0.108316,0.06694 2.297998,3.933279 2.364529,4.175066 0.02325,0.08451 -1.018364,0.980586 -2.314706,1.991282 -5.071074,3.953674 -8.735476,7.160024 -13.246985,11.591105 l -3.040446,2.986243 z"
       id="path3"
       transform="translate(12.206046,-0.67631365)" />
    <path
       style="fill:#ffffff;stroke-width:0.138107"
       d="m 35.346319,104.73899 c -0.716647,-0.50199 -1.355563,-0.96162 -1.419813,-1.02142 -0.201433,-0.18745 3.312275,-6.503982 5.915172,-10.633591 1.912722,-3.034617 3.305925,-5.106152 3.410993,-5.071763 0.05186,0.01698 0.719989,0.610465 1.484721,1.318865 l 1.390423,1.288001 -0.57112,0.783601 c -1.975105,2.709932 -5.961528,9.049557 -7.982946,12.695317 -0.473804,0.85453 -0.875631,1.5537 -0.892949,1.5537 -0.01732,0 -0.617834,-0.41072 -1.334481,-0.91271 z"
       id="path4"
       transform="translate(12.206046,-0.67631365)" />
    <path
       style="fill:#ffffff;stroke-width:0.138107"
       d="m 24.280232,131.28919 c -0.5843,-0.24205 -1.101507,-0.47924 -1.149348,-0.52708 -0.172359,-0.17236 2.244012,-7.61465 3.695129,-11.38079 l 0.589972,-1.53118 1.345016,0.71341 c 0.739759,0.39238 1.374564,0.74297 1.410679,0.77908 0.03611,0.0361 -0.331545,1.06696 -0.817022,2.29076 -0.874926,2.20553 -2.445636,6.58559 -3.195907,8.91206 -0.273659,0.84857 -0.453209,1.20477 -0.602934,1.19614 -0.117271,-0.007 -0.691284,-0.21034 -1.275585,-0.4524 z"
       id="path5"
       transform="translate(12.206046,-0.67631365)" />
    <path
       style="fill:#ffffff;stroke-width:0.138107"
       d="m 19.344778,152.76221 c -0.564286,-0.12834 -1.05151,-0.30996 -1.082719,-0.40358 -0.105258,-0.31578 1.628142,-9.88128 1.826583,-10.07972 0.0983,-0.0983 2.560872,0.69276 2.560872,0.82263 0,0.0646 -0.151123,0.75706 -0.335828,1.53876 -0.421702,1.78472 -1.597667,7.75814 -1.597667,8.11549 0,0.3117 -0.02842,0.31184 -1.371241,0.006 z"
       id="path6"
       transform="translate(12.206046,-0.67631365)" />
    <path
       style="fill:#ffffff;stroke-width:0.138107"
       d="m 16.778115,169.8877 -0.416181,-0.0854 0.165498,-2.55497 c 0.184772,-2.85255 0.427494,-5.39999 0.523678,-5.49618 0.06102,-0.061 2.15745,0.2138 2.236886,0.29324 0.02147,0.0215 -0.07812,1.18538 -0.221311,2.58646 -0.143196,1.40108 -0.304792,3.18444 -0.359103,3.96302 l -0.09875,1.41559 -0.70727,-0.0182 c -0.388998,-0.01 -0.894551,-0.0566 -1.12345,-0.10358 z"
       id="path17"
       transform="translate(12.206046,-0.67631365)" />
    <path
       style="fill:#ffffff;stroke-width:0.138107"
       d="m 16.158495,180.48681 v -3.33334 l 0.640756,0.0878 c 0.352416,0.0483 0.818526,0.0878 1.035801,0.0878 h 0.395045 v 3.24551 3.24551 h -1.035801 -1.035801 z"
       id="path18"
       transform="translate(12.206046,-0.67631365)" />
    <path
       style="fill:#ffffff;stroke-width:0.138107"
       d="m 325.79393,149.3786 c 0,-3.51604 -0.10062,-3.25571 1.25985,-3.25973 l 0.63837,-0.002 0.10034,2.4809 c 0.0552,1.3645 0.0573,2.79391 0.005,3.17646 l -0.0957,0.69555 h -0.95379 -0.95378 z"
       id="path19"
       transform="translate(12.206046,-0.67631365)" />
    <path
       style="fill:#ffffff;stroke-width:0.138107"
       d="m 325.52668,167.09053 c -0.41284,-0.0685 -0.77076,-0.14464 -0.79538,-0.16926 -0.0246,-0.0246 0.0441,-0.81586 0.15269,-1.75832 0.1086,-0.94246 0.27469,-2.65005 0.36909,-3.79465 l 0.17164,-2.0811 0.77156,0.0512 c 1.41169,0.0937 1.37466,0.0663 1.30995,0.96841 -0.21346,2.97574 -0.48866,6.24039 -0.55305,6.56071 -0.0846,0.42076 -0.16162,0.43281 -1.4265,0.223 z"
       id="path20"
       transform="translate(12.206046,-0.67631365)" />
    <path
       style="fill:#ffffff;stroke-width:0.138107"
       d="m 322.55775,185.42206 c -0.52657,-0.16662 -0.98017,-0.37122 -1.00799,-0.45468 -0.0278,-0.0834 0.2289,-1.4167 0.57047,-2.96277 0.34158,-1.54608 0.75883,-3.5879 0.92723,-4.53738 0.1684,-0.94948 0.34854,-1.77586 0.40031,-1.83638 0.0955,-0.11161 2.06215,0.2724 2.23075,0.43557 0.11417,0.11049 -0.10765,1.43905 -1.01209,6.06191 -0.58018,2.96548 -0.74949,3.6227 -0.93027,3.61099 -0.12155,-0.008 -0.65183,-0.15065 -1.17841,-0.31726 z"
       id="path21"
       transform="translate(12.206046,-0.67631365)" />
    <path
       style="fill:#ffffff;stroke-width:0.138107"
       d="m 315.50995,208.31661 c -0.60494,-0.33432 -1.1499,-0.65787 -1.21104,-0.71901 -0.0611,-0.0611 0.39669,-1.41198 1.01739,-3.00189 0.6207,-1.58991 1.57989,-4.21647 2.13154,-5.83681 0.55164,-1.62033 1.02985,-2.97293 1.06268,-3.00576 0.0451,-0.0451 2.32628,0.83807 2.56156,0.99167 0.0735,0.048 -2.96615,9.02278 -3.59401,10.6117 -0.32781,0.82958 -0.65727,1.52174 -0.73213,1.53814 -0.0749,0.0164 -0.63106,-0.24372 -1.23599,-0.57804 z"
       id="path22"
       transform="translate(12.206046,-0.67631365)" />
    <path
       style="fill:#ffffff;stroke-width:0.138107"
       d="m 300.24417,236.16352 c -1.02573,-0.96167 -1.28188,-1.27417 -1.17391,-1.43218 3.95893,-5.7936 5.73017,-8.56734 7.66266,-11.99961 0.63082,-1.12039 1.19885,-2.03707 1.2623,-2.03707 0.0634,0 0.69723,0.41703 1.40841,0.92673 l 1.29307,0.92674 -0.23437,0.4198 c -0.1289,0.2309 -0.68912,1.25881 -1.24492,2.28425 -0.5558,1.02544 -1.59904,2.85881 -2.3183,4.07415 -1.44126,2.43532 -5.11775,8.08274 -5.25571,8.07325 -0.048,-0.003 -0.67762,-0.55953 -1.39923,-1.23606 z"
       id="path23"
       transform="translate(12.206046,-0.67631365)" />
    <path
       style="fill:#ffffff;stroke-width:0.138107"
       d="m 269.68079,267.63554 -1.17619,-2.09727 1.81742,-1.38312 c 4.7968,-3.65052 8.94878,-7.2449 13.64778,-11.81491 l 2.4391,-2.37214 1.25526,1.58534 c 0.69039,0.87194 1.25525,1.64521 1.25525,1.71839 0,0.21681 -6.38037,6.55129 -8.74502,8.68212 -3.08408,2.77913 -6.7779,5.8815 -8.81429,7.40296 l -0.50312,0.3759 z"
       id="path24"
       transform="translate(12.206046,-0.67631365)" />
    <path
       style="fill:#ffffff;stroke-width:0.138107"
       d="m 210.61286,297.08409 c 0,-0.067 -0.18644,-1.41051 -0.41432,-2.98567 -0.22788,-1.57517 -0.41432,-2.96586 -0.41432,-3.09043 0,-0.18352 0.50425,-0.32799 2.65855,-0.7617 10.20621,-2.05471 20.08942,-5.18723 29.50134,-9.35056 1.18176,-0.52274 2.18704,-0.90447 2.23395,-0.84827 0.0937,0.1122 1.79014,4.89488 1.79014,5.04676 0,0.19043 -6.054,2.9206 -9.94369,4.48429 -7.40637,2.97744 -14.97332,5.31393 -23.11985,7.13885 -2.48412,0.55647 -2.2918,0.52569 -2.2918,0.36673 z"
       id="path25"
       transform="translate(12.206046,-0.67631365)" />
    <path
       style="fill:#ffffff;stroke-width:0.276214"
       d="m 157.30364,298.04588 c -12.18205,-2.1455 -23.74357,-5.66841 -34.4943,-10.51077 l -1.34866,-0.60747 0.13852,-2.38773 c 0.14333,-2.47045 0.92712,-5.8404 1.35838,-5.8404 0.13527,0 1.21251,0.48598 2.39388,1.07996 8.96095,4.50548 23.9181,9.30527 34.57621,11.0956 2.05088,0.3445 3.74328,0.63582 3.76088,0.64737 0.0176,0.0115 -0.13052,1.45041 -0.32916,3.19746 -0.19864,1.74705 -0.36841,3.39397 -0.37727,3.65983 -0.0209,0.62827 -0.31312,0.6111 -5.67848,-0.33385 z"
       id="path26"
       transform="translate(12.206046,-0.67631365)" />
  </g>
</svg>
